<svg width="1024" height="1024" viewBox="0 0 1024 1024" fill="none" xmlns="http://www.w3.org/2000/svg">
<g clip-path="url(#clip0_1_2)">
<rect width="1024" height="1024" fill="url(#paint0_linear_1_2)"/>
<path d="M211.936 647.796C170.08 618.13 171.076 555.682 213.856 527.365L491.614 343.515C516.95 326.745 550.023 327.422 574.653 345.213L816.525 519.935C857.276 549.373 856.771 610.23 815.536 638.987L547.134 826.175C521.878 843.789 488.285 843.662 463.163 825.856L211.936 647.796Z" fill="#DB758D"/>
<path d="M211.936 600.213C170.08 570.547 171.076 508.098 213.856 479.782L491.614 295.932C516.95 279.162 550.023 279.838 574.653 297.63L816.525 472.352C857.276 501.79 856.771 562.646 815.536 591.404L547.134 778.591C521.878 796.206 488.285 796.078 463.163 778.273L211.936 600.213Z" fill="#797DDE" fill-opacity="0.94"/>
<path d="M211.936 552.629C170.08 522.963 171.076 460.515 213.856 432.198L491.614 248.348C516.95 231.578 550.023 232.255 574.653 250.046L816.525 424.768C857.276 454.206 856.771 515.063 815.536 543.82L547.134 731.008C521.878 748.622 488.285 748.495 463.163 730.689L211.936 552.629Z" fill="#5FF4A3"/>
<path d="M211.936 504.925C170.08 475.26 171.076 412.811 213.856 384.494L491.614 200.644C516.95 183.875 550.023 184.551 574.653 202.342L816.524 377.064C857.276 406.502 856.771 467.359 815.536 496.116L547.134 683.304C521.878 700.918 488.285 700.791 463.163 682.985L211.936 504.925Z" fill="white"/>
<path d="M238 459.5L511.45 252.733L549.541 279.64L275.354 485.994L238 459.5Z" fill="#5FF4A3" fill-opacity="0.62"/>
<path d="M455.536 605.487L650.036 462.487L683.552 485.579L493.036 631.987L455.536 605.487Z" fill="#DB758D" fill-opacity="0.62"/>
<path d="M387.498 558.203L519.699 456.553L555.877 480.645L423.699 583.053L387.498 558.203Z" fill="#7F7DD9" fill-opacity="0.64"/>
<path d="M307.976 513.138L562.677 321.724L604.677 345.011L343.177 536.724L307.976 513.138Z" fill="#F0F0F0"/>
</g>
<defs>
<linearGradient id="paint0_linear_1_2" x1="512" y1="0" x2="512" y2="1024" gradientUnits="userSpaceOnUse">
<stop stop-color="#5FF4A3"/>
<stop offset="1" stop-color="#797DDE"/>
</linearGradient>
<clipPath id="clip0_1_2">
<rect width="1024" height="1024" fill="white"/>
</clipPath>
</defs>
</svg>
