<svg width="128" height="128" viewBox="0 0 128 128" fill="none" xmlns="http://www.w3.org/2000/svg">
<path d="M93.4276 103.051L99.4332 110.858V22.5L93.4276 18.3713L85.6203 14V110.858L93.4276 103.051Z" fill="url(#paint0_linear_1_9)"/>
<path d="M61.1379 4.01407C52.2046 4.53956 44.5755 6.55709 36.9747 10.3857C20.4216 18.7373 8.65436 34.2299 5.07914 52.3782C4.28151 56.4132 4 59.4817 4 64.0141C4 67.7864 4.10322 69.3628 4.56303 72.5533C6.65561 87.2108 14.0594 100.489 25.4701 110.06C34.3847 117.539 45.3356 122.278 56.8683 123.639C59.5052 123.948 60.772 124.023 64 124.023C67.3688 124.023 68.5511 123.958 71.4601 123.592C91.3444 121.143 108.761 108.803 117.75 90.8048C120.622 85.0525 122.517 78.9718 123.437 72.5533C123.897 69.3722 124 67.7864 124 64.061C124 60.3262 123.887 58.5902 123.437 55.4748C119.674 29.1251 98.8702 8.32123 72.5393 4.56771C69.7429 4.17359 67.96 4.04222 64.7507 4.01407C63.071 3.9953 61.4476 3.9953 61.1379 4.01407ZM67.9224 10.686C70.944 13.8671 72.2953 15.3872 74.1063 17.6206C78.1132 22.594 81.6322 28.0178 84.1939 33.2352C84.9634 34.7929 86.1458 37.3922 86.0988 37.4392C86.0144 37.5236 83.6684 38.1992 81.923 38.6309C79.1736 39.3253 77.1092 39.7288 74.0407 40.1792C72.6331 40.3857 70.6813 40.5733 67.6878 40.7892L66.909 40.8361V25.3528C66.909 13.1164 66.9371 9.86957 67.0216 9.86957C67.0873 9.86957 67.4908 10.2355 67.9224 10.686ZM61.091 25.5405V40.8455L60.4154 40.7892C60.04 40.761 59.1204 40.6953 58.3697 40.6484C55.5546 40.442 52.5142 40.0197 49.502 39.4191C47.0247 38.9218 42.5111 37.7394 42.5111 37.5893C42.5111 37.5611 42.8302 36.8198 43.2243 35.9284C46.5649 28.4026 51.2005 21.2146 57.0466 14.4958C58.4073 12.9381 60.9127 10.2449 61.0159 10.2449C61.0535 10.2449 61.091 17.1326 61.091 25.5405ZM52.1201 11.2021C52.0732 11.2678 51.726 11.6994 51.3319 12.1686C45.7579 18.756 40.8783 26.554 37.6784 33.9953C37.3031 34.8774 36.9653 35.6187 36.9371 35.6469C36.8058 35.7782 31.4476 33.3103 29.1673 32.0622C26.5493 30.6265 23.1805 28.5433 23.1805 28.3556C23.1805 28.168 27.8348 23.5887 29.0454 22.594C35.051 17.6206 41.2912 14.2424 48.4604 12.0748C49.1079 11.8871 52.0075 11.1082 52.1576 11.0895C52.1764 11.0895 52.1576 11.1458 52.1201 11.2021ZM77.7003 11.568C86.2114 13.8295 93.6434 17.8364 100.165 23.6544C101.413 24.7804 104.557 27.9521 104.735 28.2712C104.81 28.4213 104.688 28.5339 103.75 29.1439C101.441 30.6453 98.5042 32.2968 95.9518 33.5261C94.2346 34.3519 91.898 35.3935 91.7385 35.3935C91.6822 35.3935 91.3631 34.7742 91.0253 34.0047C87.9381 26.9481 83.5183 19.8445 78.132 13.304C77.4564 12.4876 76.8089 11.69 76.6869 11.5493C76.5649 11.3991 76.4992 11.2771 76.5461 11.2771C76.5837 11.2771 77.1092 11.4085 77.7003 11.568ZM23.34 35.4779C26.4648 37.3547 29.5333 38.9124 32.949 40.3669C33.9531 40.7986 34.807 41.1739 34.8445 41.2114C34.8821 41.249 34.8164 41.6056 34.685 42.0185C33.7185 45.1339 32.7989 48.9718 32.2921 52.0966C31.8886 54.5364 31.4382 58.7122 31.4382 59.9603C31.4382 60.2699 31.4101 60.6547 31.3819 60.8142L31.3162 61.1051L20.6093 61.0863L9.90241 61.0582L9.93056 60.4951C10.1464 55.9722 11.2255 50.6891 12.924 45.8564C14.3691 41.7557 16.884 36.7823 19.1079 33.6387L19.5208 33.0569L20.7407 33.8452C21.4069 34.2862 22.5799 35.0181 23.34 35.4779ZM109.258 34.2018C112.345 38.903 114.607 43.8389 116.174 49.3003C117.047 52.3594 117.797 56.5446 118.004 59.5098C118.032 59.9509 118.079 60.4858 118.107 60.7016L118.154 61.1051H107.794H97.4345L97.3688 59.904C97.0591 54.3863 95.9612 48.2774 94.3003 42.8536C94.0375 41.9715 93.8123 41.1833 93.8029 41.0895C93.7936 40.9581 94.1783 40.761 95.5202 40.1792C99.1705 38.5934 103.018 36.5477 106.424 34.38C107.325 33.8076 108.141 33.2821 108.245 33.2071C108.348 33.1226 108.46 33.0851 108.498 33.1038C108.545 33.132 108.883 33.62 109.258 34.2018ZM88.4073 43.6043C89.9462 48.4557 90.894 53.1289 91.3444 58.0554C91.4195 58.8811 91.4945 59.8946 91.5133 60.3075L91.5414 61.0582L79.2299 61.0863L66.909 61.1051V53.8983V46.6916L68.767 46.579C74.7257 46.2224 81.4069 45.0307 86.7557 43.3791C87.4313 43.1727 88.0319 43.0131 88.107 43.0225C88.1727 43.0319 88.3134 43.2946 88.4073 43.6043ZM41.9668 43.5949C47.5127 45.2089 53.462 46.2318 59.2424 46.579L61.091 46.6916V53.8983V61.1051H49.1736H37.2562V60.6922C37.2562 60.0072 37.5283 56.9387 37.7348 55.381C38.1195 52.4438 38.7576 49.2252 39.5177 46.4101C39.9587 44.7585 40.4373 43.182 40.4936 43.182C40.5124 43.182 41.1786 43.3697 41.9668 43.5949ZM31.3819 67.1295C31.4101 67.2515 31.4382 67.5987 31.4382 67.9083C31.4382 68.6966 31.6822 71.371 31.9074 73.1633C32.4892 77.6675 33.5965 82.5752 35.0041 86.8448C35.2574 87.6237 35.4357 88.2993 35.3982 88.3275C35.3607 88.365 34.807 88.609 34.1595 88.8624C30.3028 90.4013 25.9299 92.644 21.9324 95.1495C21.0597 95.6844 20.3184 96.0973 20.2809 96.0504C20.0744 95.8251 18.8076 93.9672 18.2258 93.0382C14.4723 87.0982 11.9575 80.6797 10.7094 73.8671C10.3997 72.2155 10.0901 69.832 9.99625 68.5183C9.96809 68.0773 9.92118 67.5424 9.89302 67.3172L9.84611 66.9231H20.5812H31.3256L31.3819 67.1295ZM61.091 74.9837V83.0444L60.1808 83.1007C54.5317 83.4667 50.8439 83.9828 46.0488 85.0807C44.7257 85.3904 41.2255 86.3194 41.0941 86.4038C41.0285 86.4413 40.3059 84.2643 39.7992 82.5002C38.4761 77.8646 37.594 72.7692 37.2937 67.9271L37.228 66.9231H49.1642H61.091V74.9837ZM91.5414 67.5987C91.335 70.3106 91.2693 71.0238 91.0629 72.6472C90.65 75.8189 89.9837 79.0938 89.1392 82.1248C88.6512 83.8327 87.7504 86.629 87.6847 86.629C87.6659 86.629 87.1686 86.4883 86.5868 86.31C83.2649 85.3059 79.1548 84.3957 75.5421 83.8702C72.9146 83.4855 71.2724 83.3259 67.8286 83.1007L66.909 83.0444V74.9837V66.9231H79.2487H91.5977L91.5414 67.5987ZM118.107 67.2703C118.079 67.4673 118.032 68.0022 118.004 68.4714C117.497 75.8846 114.963 84.086 111.088 90.8517C110.121 92.522 108.151 95.5718 107.719 96.0504C107.682 96.0973 106.94 95.6938 106.068 95.1495C102.211 92.7379 97.472 90.2887 94.1032 88.9656C93.6434 88.7873 93.2774 88.5996 93.2774 88.5339C93.2774 88.4682 93.3619 88.2055 93.4651 87.9334C93.7936 87.0982 94.8727 83.4573 95.3043 81.7025C96.3929 77.3015 97.0685 72.9756 97.3312 68.7247L97.4438 66.9231H107.804H118.163L118.107 67.2703ZM61.091 103.351L61.0816 117.736L60.04 116.657C53.462 109.835 47.7191 101.596 44.0125 93.6763C43.5996 92.7754 43.2712 91.9966 43.29 91.9403C43.3744 91.7432 47.5127 90.7016 50.3935 90.1573C53.7717 89.5192 57.7879 89.05 60.3215 88.9937L61.091 88.975V103.351ZM70.9909 89.2189C75.5045 89.66 80.4216 90.589 84.3159 91.7526C84.7851 91.8839 85.2355 92.0247 85.3294 92.0435C85.4138 92.0716 85.4889 92.1373 85.4889 92.203C85.4889 92.4188 82.9271 97.4485 81.9418 99.1564C78.9578 104.355 75.5515 109.056 71.2443 113.917C69.3112 116.104 67.2937 118.159 67.0873 118.159C66.909 118.159 66.909 117.802 66.909 103.557V88.9468L68.2509 89.0125C68.9828 89.05 70.2215 89.1439 70.9909 89.2189ZM39.1799 97.092C42.3328 103.595 46.2271 109.582 51.1442 115.484C51.8104 116.282 52.3359 116.939 52.3078 116.939C52.1576 116.939 50.0838 116.413 49.0047 116.104C40.015 113.495 32.1139 108.794 25.3951 102.028L24.0907 100.723L24.8789 100.207C27.9474 98.218 32.949 95.6562 36.787 94.1079L37.5846 93.7889L37.8098 94.2674C37.9412 94.5302 38.5511 95.797 39.1799 97.092ZM92.7801 94.7648C95.736 96.0222 100.55 98.5464 103.121 100.207L103.909 100.723L102.558 102.084C96.5899 108.09 89.5708 112.519 81.6978 115.24C79.8492 115.878 76.6681 116.798 76.6681 116.685C76.6681 116.667 77.1655 116.047 77.7754 115.315C82.8145 109.282 87.1311 102.563 90.1808 96.0222C90.6687 94.9806 91.1192 94.1361 91.1755 94.1361C91.2412 94.1361 91.9637 94.4176 92.7801 94.7648Z" fill="#01CFFC"/>
<defs>
<linearGradient id="paint0_linear_1_9" x1="92.5267" y1="15.969" x2="92.5267" y2="110.858" gradientUnits="userSpaceOnUse">
<stop stop-color="#F53232"/>
<stop offset="0.520833" stop-color="#DB7453"/>
<stop offset="1" stop-color="#FF9900"/>
</linearGradient>
</defs>
</svg>
